HIERARCHY
ROOT Root
{
  OFFSET 0.0 0.0 0.0
  CHANNELS 6 Xposition Yposition Zposition Zrotation Yrotation Xrotation
  JOINT Hips
  {
    OFFSET 0.0 100.0 0.0
    CHANNELS 6 Xposition Yposition Zposition Zrotation Yrotation Xrotation
    JOINT Spine1
    {
      OFFSET -0.013727 5.003763 -0.053727
      CHANNELS 3 Zrotation Yrotation Xrotation
      JOINT Spine2
      {
        OFFSET -0.0 7.125301 -0.029825
        CHANNELS 3 Zrotation Yrotation Xrotation
        JOINT Chest
        {
          OFFSET -1e-06 7.550063 -0.815971
          CHANNELS 3 Zrotation Yrotation Xrotation
          JOINT Neck1
          {
            OFFSET -0.181677 26.311295 -0.553348
            CHANNELS 3 Zrotation Yrotation Xrotation
            JOINT Neck2
            {
              OFFSET -3e-06 7.709397 2.302585
              CHANNELS 3 Zrotation Yrotation Xrotation
              JOINT Head
              {
                OFFSET -5e-06 6.128916 1.953709
                CHANNELS 3 Zrotation Yrotation Xrotation
                JOINT HeadEnd
                {
                  OFFSET 0.003598 16.065403 -1.835379
                  CHANNELS 3 Zrotation Yrotation Xrotation
                }
                JOINT Jaw
                {
                  OFFSET 0.002637 0.475592 3.094941
                  CHANNELS 3 Zrotation Yrotation Xrotation
                }
                JOINT LeftEye
                {
                  OFFSET 3.206381 5.380205 7.586883
                  CHANNELS 3 Zrotation Yrotation Xrotation
                }
                JOINT RightEye
                {
                  OFFSET -3.22244 5.361869 7.558234
                  CHANNELS 3 Zrotation Yrotation Xrotation
                }
              }
            }
          }
          JOINT LeftShoulder
          {
            OFFSET 1.621652 23.237164 5.113413
            CHANNELS 3 Zrotation Yrotation Xrotation
            JOINT LeftArm
            {
              OFFSET 14.919846 2e-06 -5.502326
              CHANNELS 3 Zrotation Yrotation Xrotation
              JOINT LeftForeArm
              {
                OFFSET 28.739307 0.0 -0.002588
                CHANNELS 3 Zrotation Yrotation Xrotation
                JOINT LeftHand
                {
                  OFFSET 27.093981 -1e-06 0.002609
                  CHANNELS 3 Zrotation Yrotation Xrotation
                  JOINT LeftHandThumb1
                  {
                    OFFSET 2.276482 -1.392045 3.191413
                    CHANNELS 3 Zrotation Yrotation Xrotation
                    JOINT LeftHandThumb2
                    {
                      OFFSET 4.012836 -1.828127 1.641654
                      CHANNELS 3 Zrotation Yrotation Xrotation
                      JOINT LeftHandThumb3
                      {
                        OFFSET 2.798515 0.0 -3e-06
                        CHANNELS 3 Zrotation Yrotation Xrotation
                        JOINT LeftHandThumbEnd
                        {
                          OFFSET 3.180793 -4e-06 4e-06
                          CHANNELS 3 Zrotation Yrotation Xrotation
                        }
                      }
                    }
                  }
                  JOINT LeftHandIndex1
                  {
                    OFFSET 3.247555 -0.531998 2.296169
                    CHANNELS 3 Zrotation Yrotation Xrotation
                    JOINT LeftHandIndex2
                    {
                      OFFSET 6.364578 0.01206 0.1786
                      CHANNELS 3 Zrotation Yrotation Xrotation
                      JOINT LeftHandIndex3
                      {
                        OFFSET 3.662364 0.0 0.0
                        CHANNELS 3 Zrotation Yrotation Xrotation
                        JOINT LeftHandIndex4
                        {
                          OFFSET 2.329242 4e-06 4e-06
                          CHANNELS 3 Zrotation Yrotation Xrotation
                          JOINT LeftHandIndexEnd
                          {
                            OFFSET 2.759615 -0.180537 -0.113024
                            CHANNELS 3 Zrotation Yrotation Xrotation
                          }
                        }
                      }
                    }
                  }
                  JOINT LeftHandMiddle1
                  {
                    OFFSET 3.163495 0.240981 1.000332
                    CHANNELS 3 Zrotation Yrotation Xrotation
                    JOINT LeftHandMiddle2
                    {
                      OFFSET 6.19078 -0.259278 -1.002548
                      CHANNELS 3 Zrotation Yrotation Xrotation
                      JOINT LeftHandMiddle3
                      {
                        OFFSET 4.35652 -4e-06 -1e-06
                        CHANNELS 3 Zrotation Yrotation Xrotation
                        JOINT LeftHandMiddle4
                        {
                          OFFSET 2.996877 -8e-06 0.0
                          CHANNELS 3 Zrotation Yrotation Xrotation
                          JOINT LeftHandMiddleEnd
                          {
                            OFFSET 2.304287 -0.294569 -0.031741
                            CHANNELS 3 Zrotation Yrotation Xrotation
                          }
                        }
                      }
                    }
                  }
                  JOINT LeftHandRing1
                  {
                    OFFSET 2.882643 -0.053652 -0.322543
                    CHANNELS 3 Zrotation Yrotation Xrotation
                    JOINT LeftHandRing2
                    {
                      OFFSET 5.854541 -0.486202 -1.373841
                      CHANNELS 3 Zrotation Yrotation Xrotation
                      JOINT LeftHandRing3
                      {
                        OFFSET 4.350578 0.0 3e-06
                        CHANNELS 3 Zrotation Yrotation Xrotation
                        JOINT LeftHandRing4
                        {
                          OFFSET 2.651321 7e-06 2e-06
                          CHANNELS 3 Zrotation Yrotation Xrotation
                          JOINT LeftHandRingEnd
                          {
                            OFFSET 1.936105 0.077687 -7.1e-05
                            CHANNELS 3 Zrotation Yrotation Xrotation
                          }
                        }
                      }
                    }
                  }
                  JOINT LeftHandPinky1
                  {
                    OFFSET 2.8655 -0.310005 -1.600378
                    CHANNELS 3 Zrotation Yrotation Xrotation
                    JOINT LeftHandPinky2
                    {
                      OFFSET 5.087849 -1.331141 -1.77123
                      CHANNELS 3 Zrotation Yrotation Xrotation
                      JOINT LeftHandPinky3
                      {
                        OFFSET 3.070974 4e-06 0.0
                        CHANNELS 3 Zrotation Yrotation Xrotation
                        JOINT LeftHandPinky4
                        {
                          OFFSET 1.549672 0.0 1e-06
                          CHANNELS 3 Zrotation Yrotation Xrotation
                          JOINT LeftHandPinkyEnd
                          {
                            OFFSET 1.944893 -0.157802 0.057219
                            CHANNELS 3 Zrotation Yrotation Xrotation
                          }
                        }
                      }
                    }
                  }
                }
              }
            }
          }
          JOINT RightShoulder
          {
            OFFSET -1.380118 23.180309 5.214158
            CHANNELS 3 Zrotation Yrotation Xrotation
            JOINT RightArm
            {
              OFFSET -15.037196 1.2e-05 -5.545604
              CHANNELS 3 Zrotation Yrotation Xrotation
              JOINT RightForeArm
              {
                OFFSET -28.736639 2e-06 -0.002597
                CHANNELS 3 Zrotation Yrotation Xrotation
                JOINT RightHand
                {
                  OFFSET -27.133619 -0.0 0.002613
                  CHANNELS 3 Zrotation Yrotation Xrotation
                  JOINT RightHandThumb1
                  {
                    OFFSET -2.274032 -1.383988 3.163127
                    CHANNELS 3 Zrotation Yrotation Xrotation
                    JOINT RightHandThumb2
                    {
                      OFFSET -4.011429 -1.827466 1.640914
                      CHANNELS 3 Zrotation Yrotation Xrotation
                      JOINT RightHandThumb3
                      {
                        OFFSET -2.794935 -4e-06 -3e-06
                        CHANNELS 3 Zrotation Yrotation Xrotation
                        JOINT RightHandThumbEnd
                        {
                          OFFSET -3.183852 4e-06 1e-06
                          CHANNELS 3 Zrotation Yrotation Xrotation
                        }
                      }
                    }
                  }
                  JOINT RightHandIndex1
                  {
                    OFFSET -3.253266 -0.520057 2.282866
                    CHANNELS 3 Zrotation Yrotation Xrotation
                    JOINT RightHandIndex2
                    {
                      OFFSET -6.341917 0.012471 0.178266
                      CHANNELS 3 Zrotation Yrotation Xrotation
                      JOINT RightHandIndex3
                      {
                        OFFSET -3.654871 -8e-06 -0.0
                        CHANNELS 3 Zrotation Yrotation Xrotation
                        JOINT RightHandIndex4
                        {
                          OFFSET -2.327586 0.0 1e-06
                          CHANNELS 3 Zrotation Yrotation Xrotation
                          JOINT RightHandIndexEnd
                          {
                            OFFSET -2.76179 -0.180656 -0.113078
                            CHANNELS 3 Zrotation Yrotation Xrotation
                          }
                        }
                      }
                    }
                  }
                  JOINT RightHandMiddle1
                  {
                    OFFSET -3.168106 0.246593 1.00103
                    CHANNELS 3 Zrotation Yrotation Xrotation
                    JOINT RightHandMiddle2
                    {
                      OFFSET -6.180828 -0.258836 -1.000895
                      CHANNELS 3 Zrotation Yrotation Xrotation
                      JOINT RightHandMiddle3
                      {
                        OFFSET -4.348901 0.0 -0.0
                        CHANNELS 3 Zrotation Yrotation Xrotation
                        JOINT RightHandMiddle4
                        {
                          OFFSET -3.00024 -4e-06 -2e-06
                          CHANNELS 3 Zrotation Yrotation Xrotation
                          JOINT RightHandMiddleEnd
                          {
                            OFFSET -2.30252 -0.29437 -0.031706
                            CHANNELS 3 Zrotation Yrotation Xrotation
                          }
                        }
                      }
                    }
                  }
                  JOINT RightHandRing1
                  {
                    OFFSET -2.88569 -0.067952 -0.308858
                    CHANNELS 3 Zrotation Yrotation Xrotation
                    JOINT RightHandRing2
                    {
                      OFFSET -5.854198 -0.48613 -1.373731
                      CHANNELS 3 Zrotation Yrotation Xrotation
                      JOINT RightHandRing3
                      {
                        OFFSET -4.33881 -4e-06 -0.0
                        CHANNELS 3 Zrotation Yrotation Xrotation
                        JOINT RightHandRing4
                        {
                          OFFSET -2.654903 -4e-06 4e-06
                          CHANNELS 3 Zrotation Yrotation Xrotation
                          JOINT RightHandRingEnd
                          {
                            OFFSET -1.933568 0.077527 -5.2e-05
                            CHANNELS 3 Zrotation Yrotation Xrotation
                          }
                        }
                      }
                    }
                  }
                  JOINT RightHandPinky1
                  {
                    OFFSET -2.866425 -0.342796 -1.584145
                    CHANNELS 3 Zrotation Yrotation Xrotation
                    JOINT RightHandPinky2
                    {
                      OFFSET -5.091371 -1.332055 -1.772385
                      CHANNELS 3 Zrotation Yrotation Xrotation
                      JOINT RightHandPinky3
                      {
                        OFFSET -3.062664 -4e-06 1e-06
                        CHANNELS 3 Zrotation Yrotation Xrotation
                        JOINT RightHandPinky4
                        {
                          OFFSET -1.546529 4e-06 -2e-06
                          CHANNELS 3 Zrotation Yrotation Xrotation
                          JOINT RightHandPinkyEnd
                          {
                            OFFSET -1.945119 -0.157718 0.057211
                            CHANNELS 3 Zrotation Yrotation Xrotation
                          }
                        }
                      }
                    }
                  }
                }
              }
            }
          }
        }
      }
    }
    JOINT LeftLeg
    {
      OFFSET 10.043214 -8.434526 2.595655
      CHANNELS 3 Zrotation Yrotation Xrotation
      JOINT LeftShin
      {
        OFFSET -1e-06 -43.221752 -0.802913
        CHANNELS 3 Zrotation Yrotation Xrotation
        JOINT LeftFoot
        {
          OFFSET 1e-06 -42.155094 -3.481523
          CHANNELS 3 Zrotation Yrotation Xrotation
          JOINT LeftToeBase
          {
            OFFSET 0.0 -5.059472 13.231529
            CHANNELS 3 Zrotation Yrotation Xrotation
            JOINT LeftToeEnd
            {
              OFFSET -0.009607 -1.647619 6.513017
              CHANNELS 3 Zrotation Yrotation Xrotation
            }
          }
        }
      }
    }
    JOINT RightLeg
    {
      OFFSET -10.047278 -8.29526 2.620317
      CHANNELS 3 Zrotation Yrotation Xrotation
      JOINT RightShin
      {
        OFFSET 1e-06 -43.362206 -0.805556
        CHANNELS 3 Zrotation Yrotation Xrotation
        JOINT RightFoot
        {
          OFFSET 2e-06 -42.117393 -3.478398
          CHANNELS 3 Zrotation Yrotation Xrotation
          JOINT RightToeBase
          {
            OFFSET -0.0 -5.079609 13.284196
            CHANNELS 3 Zrotation Yrotation Xrotation
            JOINT RightToeEnd
            {
              OFFSET 0.009532 -1.634378 6.460591
              CHANNELS 3 Zrotation Yrotation Xrotation
            }
          }
        }
      }
    }
  }
}
MOTION
Frames: 4
Frame Time: 0.03333333333333333
0.0 0.0 0.0 0.0 -0.0 0.0 1.92604 99.049294 -1.818654 -4.350794 -1.258944 6.002714 -0.396679 0.37931 3.628401 -0.161918 2.227379 -3.502648 2.29972 1.486982 9.820891 -10.086999 7.324529 5.779983 1.157157 7.744528 -3.614501 -5.938404 9.304568 -14.165554 7.7e-05 -2.1e-05 6e-06 0.099642 -0.106536 -0.13704 0.825975 -3.856332 -10.883459 -0.639678 3.654403 -10.87501 -7.690022 -3.188914 12.132125 -68.450752 -8.677401 6.001126 0.322682 -38.802639 -0.110568 3.548872 -2.987092 -9.334579 -5.882103 9.861284 0.70259 -10.936867 -0.360574 7.156203 -1e-06 8.774825 -1e-06 -16.804369 17.551403 5.537588 -1.844031 2.498505 -2.507277 -10.163595 4.678946 4.621107 -20.976017 -2e-06 3e-06 -21.226276 2.451698 -3.593998 1e-06 -6e-06 -1e-06 -1.362681 2.240797 -0.746323 -21.334904 0.584909 3.008323 -13.821208 -2e-06 1e-06 -23.887159 -0.249078 -0.839483 -61.412075 2.504344 -1.501396 -0.294025 1.679687 0.833256 -14.218204 0.093216 1.300581 -34.212036 -0.287563 0.96717 -20.033205 0.964537 1.212842 1e-06 -0.0 -0.0 -3.440387 0.788235 0.501656 -15.928179 -3.16731 2.999707 -6.338824 -1e-06 1e-06 -18.123444 3.648183 -4.905668 -5e-06 0.0 -2e-06 5.24396 19.303518 12.548101 71.371094 14.821946 11.154327 1.780457 38.826588 0.796252 2.913292 -1.575073 5.767227 2.243542 -5.255037 -3.180159 14.282894 -0.826595 6.952501 -3e-06 -12.690605 1e-06 15.830393 -17.431868 2.612417 1.665668 -1.955922 -2.878299 4.727798 -4.17059 4.993926 11.020528 3e-06 -2e-06 12.109055 -3.735715 -2.866785 0.0 0.0 -0.0 1.291986 -1.928551 -1.498089 14.800131 0.56747 3.865604 14.242577 -1.341734 -6.660662 19.631971 0.143928 -0.648247 48.862522 -0.927179 -6.384277 0.353029 -1.511152 -0.031939 20.222795 3.684312 2.316628 18.787273 7e-06 -3e-06 10.751629 -0.479866 1.397905 1e-06 -0.0 -0.0 3.273807 0.305946 -0.580112 21.486818 11.830378 2.266129 8.16293 3e-06 -3e-06 18.399086 -3.798982 -4.940578 4e-06 1e-06 -1e-06 -14.476263 21.111486 -16.860992 0.192048 1.086449 14.573235 7.012596 21.42996 -5.640928 1.73964 -2.055965 -3.244332 -0.0 0.0 2e-06 10.558731 -35.741272 -19.612812 -0.247979 -0.468465 48.101097 26.95355 13.398897 13.855903 -1.067003 0.783892 -5.264421 0.0 1e-06 -2e-06 
0.0 0.0 0.0 0.0 -0.0 0.0 4.070315 98.371002 -1.697418 -5.228951 -4.135552 5.322452 -0.07646 0.638946 3.746011 -0.11669 2.575289 -3.49924 2.633254 1.510084 10.313898 -10.778773 7.654029 6.400067 1.617588 8.362912 -3.58352 -6.594871 10.350368 -14.653296 7.7e-05 -2.1e-05 5e-06 0.106261 -0.129878 -0.177942 0.816501 -3.869747 -10.864417 -0.615743 3.623859 -10.84479 -8.410486 -2.476617 13.008957 -67.367676 -8.348907 5.71427 -0.242043 -40.080654 -0.072774 3.270894 -4.230379 -8.74928 -5.882112 9.861292 0.702589 -10.936881 -0.360576 7.156208 2e-06 8.774831 0.0 -16.655228 17.555344 5.449727 -1.844035 2.498506 -2.50728 -10.163611 4.678948 4.621109 -20.976049 -6e-06 -2e-06 -21.226311 2.451694 -3.594005 1e-06 -6e-06 0.0 -1.362683 2.240799 -0.746324 -21.334936 0.584907 3.008321 -13.821229 -5e-06 -1e-06 -23.887199 -0.249084 -0.839485 -61.073326 2.373695 -1.452806 -0.294025 1.679687 0.833257 -14.218224 0.093214 1.300578 -34.212082 -0.287572 0.967168 -20.033232 0.964533 1.212844 0.0 -0.0 1e-06 -3.440392 0.788234 0.501655 -15.928203 -3.167314 2.999706 -6.338833 -2e-06 0.0 -18.123466 3.648182 -4.905676 -5e-06 -0.0 -1e-06 5.487655 19.566147 12.928061 70.209373 16.613123 13.153431 1.211427 38.306721 0.460488 3.267761 -1.48336 4.871606 2.243542 -5.25504 -3.180161 14.282901 -0.826594 6.952509 -5e-06 -12.690619 3e-06 16.055847 -17.454468 2.532977 1.665668 -1.955922 -2.8783 4.7278 -4.170591 4.993929 11.020535 3e-06 -1e-06 12.10906 -3.735717 -2.866787 0.0 0.0 -0.0 1.291987 -1.928551 -1.49809 14.800139 0.567469 3.865608 14.242582 -1.341735 -6.660663 19.631979 0.143931 -0.648246 49.211975 -1.007482 -6.391797 0.353028 -1.511152 -0.03194 20.222805 3.684315 2.31663 18.787287 8e-06 -0.0 10.751635 -0.479866 1.397907 0.0 -0.0 -0.0 3.273809 0.305948 -0.58011 21.486832 11.830392 2.266135 8.162934 3e-06 -1e-06 18.399094 -3.798988 -4.940577 4e-06 0.0 -1e-06 -14.846808 21.635792 -19.424561 0.273947 1.503128 20.954445 7.271264 23.24696 -6.177465 1.791986 -2.132103 -3.715107 0.0 -1e-06 2e-06 14.647671 -33.604733 -17.55275 -0.264077 -0.967512 43.51609 29.6087 18.317343 14.498863 -0.868346 0.576582 -5.664259 1e-06 -1e-06 -0.0 
0.0 0.0 0.0 0.0 -0.0 0.0 8.617508 97.687981 -1.542389 -4.798108 -6.412922 4.115094 -0.196594 0.942819 3.847175 -0.263556 2.890712 -3.538141 2.777856 1.692057 10.913987 -11.668008 8.140562 7.956095 1.876321 8.693666 -3.513577 -7.353409 11.017015 -14.50133 7.7e-05 -2.1e-05 6e-06 0.107202 -0.064575 -0.161382 0.822587 -3.793995 -10.815277 -0.616801 3.679515 -10.779558 -8.887519 -1.807404 13.572177 -66.656311 -8.111566 6.34219 -0.503852 -40.755348 -0.068657 2.512154 -4.800475 -7.646358 -5.88211 9.861293 0.702591 -10.936877 -0.360573 7.156209 -1e-06 8.774831 -3e-06 -16.336605 17.782398 5.578547 -1.844034 2.498505 -2.50728 -10.163604 4.678948 4.621111 -20.976034 -3e-06 -0.0 -21.226301 2.451697 -3.594007 2e-06 -6e-06 -1e-06 -1.362682 2.2408 -0.746324 -21.334925 0.584911 3.008323 -13.821221 -2e-06 0.0 -23.887182 -0.249079 -0.839486 -60.929672 2.474775 -1.479151 -0.294025 1.679688 0.833258 -14.218216 0.093216 1.30058 -34.212067 -0.287563 0.967165 -20.033226 0.964536 1.212841 -0.0 -0.0 0.0 -3.44039 0.788234 0.501656 -15.928192 -3.167312 2.999709 -6.338829 -0.0 -0.0 -18.123459 3.648185 -4.905677 -5e-06 -1e-06 -2e-06 4.981699 19.547136 13.226395 69.996231 18.457352 14.587927 0.548759 37.073841 0.154192 3.539027 -1.866065 3.930034 2.243541 -5.255035 -3.180155 14.282887 -0.826593 6.952497 -4e-06 -12.690602 -1e-06 16.308128 -17.538965 2.405173 1.665666 -1.955921 -2.8783 4.727797 -4.170586 4.993922 11.020524 4e-06 -2e-06 12.10905 -3.735712 -2.866787 0.0 1e-06 -0.0 1.291985 -1.92855 -1.49809 14.800125 0.56747 3.865604 14.24257 -1.341734 -6.660658 19.631968 0.143928 -0.648246 49.497574 -1.085146 -6.53347 0.353029 -1.511151 -0.03194 20.222788 3.684311 2.316627 18.78727 9e-06 -1e-06 10.751625 -0.479866 1.397904 1e-06 -1e-06 -0.0 3.273807 0.305948 -0.580112 21.486809 11.830376 2.266129 8.162926 3e-06 -3e-06 18.399076 -3.798981 -4.940575 4e-06 0.0 -1e-06 -16.906984 22.867065 -21.458141 0.459741 1.924475 27.028503 7.999045 22.416866 -5.258839 1.910643 -2.257855 -5.621069 0.0 1e-06 2e-06 15.242132 -27.685688 -13.044415 -0.18597 -1.248849 34.769268 28.968304 23.321014 12.250628 -0.90184 0.516992 -7.116049 0.0 0.0 -1e-06 
0.0 0.0 0.0 0.0 -0.0 0.0 13.393246 97.322441 -1.470088 -2.978141 -6.989899 2.760306 -0.60529 1.194073 4.034091 -0.24976 2.920323 -3.529593 2.275754 1.765196 11.425205 -12.693942 9.036526 9.690528 1.607095 8.249127 -3.587571 -7.864729 10.710471 -14.199665 7.7e-05 -2.1e-05 6e-06 0.101278 -0.054894 -0.109391 0.798607 -3.796653 -10.777442 -0.605796 3.702529 -10.748122 -9.683795 -1.193717 13.430602 -66.187881 -8.327016 6.978893 -0.498778 -40.886692 -0.232849 1.809598 -4.954958 -6.942189 -5.882108 9.861286 0.70259 -10.936876 -0.360576 7.156206 0.0 8.774826 -1e-06 -16.271816 18.118532 5.605193 -1.844033 2.498504 -2.507278 -10.163603 4.678946 4.621109 -20.976028 -5e-06 2e-06 -21.226292 2.451696 -3.594002 2e-06 -6e-06 -0.0 -1.362682 2.240799 -0.746324 -21.334925 0.584909 3.008322 -13.82122 -3e-06 1e-06 -23.887182 -0.249081 -0.839483 -60.855503 2.732544 -1.710638 -0.294025 1.679688 0.833256 -14.218214 0.093216 1.30058 -34.212063 -0.287565 0.967171 -20.033218 0.964536 1.212843 -0.0 -0.0 -1e-06 -3.440389 0.788232 0.501655 -15.928192 -3.167312 2.999707 -6.338828 -1e-06 -0.0 -18.123455 3.648183 -4.905674 -6e-06 -1e-06 -2e-06 4.205283 19.753437 13.285288 70.060493 19.646547 14.683459 0.197945 35.524895 0.015745 3.629741 -2.851967 3.321277 2.243542 -5.255037 -3.180158 14.282892 -0.826595 6.9525 -1e-06 -12.690603 -0.0 16.231129 -17.475321 2.396929 1.665665 -1.95592 -2.878299 4.727798 -4.170588 4.993921 11.020528 3e-06 -1e-06 12.109052 -3.735715 -2.866785 0.0 1e-06 -0.0 1.291986 -1.928549 -1.498089 14.800125 0.567468 3.865605 14.242571 -1.341736 -6.660659 19.631962 0.143925 -0.648245 49.380543 -1.03378 -6.649404 0.353029 -1.511151 -0.031941 20.222788 3.68431 2.316629 18.78727 5e-06 -3e-06 10.751626 -0.479868 1.397905 1e-06 -0.0 -0.0 3.273807 0.305946 -0.580112 21.486811 11.830373 2.266133 8.162926 3e-06 -1e-06 18.399076 -3.798983 -4.940578 4e-06 -1e-06 -1e-06 -20.029148 23.911465 -23.702837 0.547522 2.379879 33.504875 7.179595 18.21505 -1.947045 2.08318 -2.278363 -9.603202 0.0 0.0 2e-06 12.648822 -19.816336 -9.479364 -0.048642 -1.104545 29.190599 15.08741 24.18902 -0.853994 -1.278267 0.680983 -7.239022 0.0 0.0 -1e-06 
